<svg width="119" height="22" viewBox="0 0 119 22" fill="none" xmlns="http://www.w3.org/2000/svg">
<g clip-path="url(#clip0_289_1078)">
<path d="M16.0756 17.6047L12.7923 5.36538L9.48544 17.6047C9.22654 18.5298 9.01471 19.194 8.86172 19.5972C8.69602 20.023 8.42451 20.3987 8.07325 20.6883C7.64404 21.0237 7.10929 21.1922 6.56692 21.1627C6.13343 21.1809 5.70293 21.0827 5.3195 20.878C4.98688 20.685 4.7108 20.4068 4.51926 20.0716C4.30594 19.6986 4.13989 19.3002 4.02499 18.8856C3.89554 18.3993 3.77786 17.9605 3.67195 17.5454L0.306245 3.79988C0.136971 3.20448 0.0343387 2.59185 0.000269428 1.97345C-0.00401761 1.72373 0.0428967 1.47581 0.13807 1.2452C0.233244 1.0146 0.374629 0.806279 0.553376 0.633284C0.732244 0.45371 0.945526 0.312736 1.18022 0.218942C1.41492 0.125148 1.66612 0.0805092 1.91849 0.0877412C2.21172 0.0528633 2.50875 0.102294 2.77529 0.230307C3.04183 0.35832 3.26701 0.559713 3.42482 0.81121C3.7438 1.48145 3.97331 2.1913 4.10737 2.92226L6.75521 14.7821L9.73257 3.62199C9.89175 2.96287 10.0882 2.31346 10.321 1.67696C10.499 1.21244 10.7953 0.803389 11.1801 0.490971C11.6458 0.146489 12.2153 -0.0252865 12.7923 0.00471367C13.3738 -0.0322786 13.9483 0.149461 14.4045 0.514714C14.7555 0.812086 15.03 1.19045 15.2048 1.61767C15.346 2.02091 15.5461 2.68504 15.7932 3.59824L18.7941 14.7584L21.4419 2.89852C21.5396 2.4015 21.6654 1.91051 21.8185 1.42791C21.9368 1.06889 22.1385 0.743588 22.4069 0.479136C22.7332 0.196126 23.1535 0.047847 23.5837 0.0640346C24.0907 0.0543159 24.581 0.246004 24.9488 0.597706C25.1285 0.772504 25.2704 0.98283 25.3655 1.21549C25.4607 1.44815 25.5072 1.69814 25.502 1.94974C25.4679 2.56815 25.3652 3.18077 25.196 3.77617L21.8303 17.5098C21.5949 18.4468 21.4066 19.1228 21.2536 19.5497C21.1059 20.0086 20.8374 20.4184 20.4769 20.7357C20.0428 21.0889 19.4918 21.2627 18.9353 21.222C18.3932 21.2493 17.8592 21.0812 17.429 20.7476C17.0793 20.4738 16.8107 20.1088 16.6523 19.6921C16.5464 19.2177 16.3345 18.5535 16.0756 17.6047Z" fill="#3B81FF" stroke="#3B81FF" stroke-width="0.75" stroke-miterlimit="10"/>
<path d="M30.5131 18.5498V2.51535C30.4607 1.83769 30.6622 1.16483 31.078 0.62964C31.2612 0.424139 31.4867 0.261433 31.7387 0.152864C31.9908 0.0442957 32.2633 -0.00751564 32.5373 0.00106944C32.8172 -0.00812325 33.0959 0.0420326 33.3554 0.148268C33.6149 0.254503 33.8493 0.414437 34.0436 0.617768C34.4612 1.1566 34.6628 1.83383 34.6085 2.51535V18.5973C34.661 19.275 34.4594 19.9478 34.0436 20.483C33.8506 20.6824 33.62 20.8409 33.3654 20.9491C33.1107 21.0573 32.8372 21.113 32.5608 21.113C32.2845 21.113 32.0109 21.0573 31.7562 20.9491C31.5016 20.8409 31.271 20.6824 31.078 20.483C30.6539 19.9338 30.4521 19.243 30.5131 18.5498Z" fill="#3B81FF" stroke="#3B81FF" stroke-width="0.75" stroke-miterlimit="10"/>
<path d="M44.9068 2.48178L52.8033 14.5195V2.37505C52.7528 1.73988 52.9326 1.10782 53.3093 0.596072C53.4759 0.400787 53.6842 0.24602 53.9186 0.143329C54.153 0.0406388 54.4073 -0.00731466 54.6627 0.00307998C54.9252 -0.00936518 55.1871 0.0374089 55.4294 0.139999C55.6717 0.24259 55.8882 0.398409 56.0631 0.596072C56.4398 1.10782 56.6196 1.73988 56.5691 2.37505V18.4333C56.5691 20.2241 55.8395 21.1136 54.3685 21.1136C54.0287 21.1211 53.6902 21.0689 53.3682 20.9594C53.0649 20.8418 52.7856 20.6689 52.5444 20.4494C52.2751 20.2049 52.0343 19.9304 51.8265 19.6311L51.1557 18.6823L43.4594 6.82249V18.7891C43.5059 19.4257 43.3126 20.0567 42.918 20.5562C42.7389 20.7457 42.5234 20.8964 42.2847 20.9995C42.046 21.1026 41.7891 21.1557 41.5294 21.1557C41.2697 21.1557 41.0127 21.1026 40.774 20.9995C40.5353 20.8964 40.3199 20.7457 40.1407 20.5562C39.7653 20.0524 39.5816 19.4296 39.6229 18.8009V3.00362C39.5997 2.4684 39.6755 1.93352 39.8465 1.42628C40.0201 1.00058 40.3256 0.642797 40.7174 0.40631C41.1017 0.140678 41.5576 -3.13624e-05 42.0236 0.00307998C42.329 -0.0137049 42.6342 0.0382697 42.9172 0.155201C43.2001 0.272132 43.4537 0.451092 43.6594 0.6791C43.8908 0.921366 44.0959 1.18771 44.2713 1.47369C44.4714 1.7939 44.695 2.12599 44.9068 2.48178Z" fill="#3B81FF" stroke="#3B81FF" stroke-width="0.75" stroke-miterlimit="10"/>
<path d="M77.653 17.6034L74.3814 5.364L71.0628 17.6034C70.8039 18.5284 70.6039 19.1926 70.4509 19.5958C70.2805 20.0221 70.0051 20.3976 69.6506 20.6869C69.2214 21.0223 68.6867 21.1908 68.1443 21.1613C67.711 21.1778 67.2809 21.0797 66.8969 20.8766C66.5669 20.6802 66.2916 20.4028 66.0966 20.0702C65.8833 19.6972 65.7173 19.2988 65.6024 18.8842C65.4729 18.398 65.3552 17.9591 65.2611 17.544L61.8836 3.79849C61.7144 3.20309 61.6117 2.59046 61.5777 1.97206C61.5734 1.72235 61.6203 1.47442 61.7154 1.24382C61.8106 1.01321 61.952 0.804891 62.1308 0.631896C62.3118 0.45198 62.5272 0.310918 62.7638 0.217156C63.0004 0.123394 63.2535 0.0788842 63.5076 0.0863532C63.8007 0.0528966 64.0972 0.102953 64.3635 0.230837C64.6298 0.358722 64.8552 0.559326 65.014 0.809822C65.3335 1.47881 65.5592 2.18928 65.6848 2.92087L68.3444 14.7807L71.3099 3.6206C71.472 2.96098 71.6725 2.3115 71.9101 1.67557C72.0834 1.21159 72.3758 0.802315 72.7574 0.489583C73.2277 0.145116 73.8009 -0.02651 74.3814 0.0033256C74.9622 -0.0270513 75.5344 0.15397 75.9937 0.513326C76.3414 0.811084 76.612 1.18962 76.7822 1.61628C76.9352 2.01952 77.1234 2.68365 77.3706 3.59686L80.3715 14.757L83.0311 2.89713C83.1258 2.40055 83.2476 1.90961 83.3959 1.42652C83.5169 1.06883 83.7183 0.744152 83.9843 0.477748C84.3106 0.194738 84.7309 0.0464589 85.1611 0.0626465C85.4123 0.056547 85.6623 0.100555 85.8965 0.192146C86.1308 0.283737 86.3448 0.421082 86.5262 0.596318C86.7082 0.769309 86.8517 0.97931 86.947 1.2124C87.0424 1.44549 87.0875 1.69637 87.0793 1.94836C87.0452 2.56589 86.9466 3.17809 86.7851 3.77478L83.4076 17.5085C83.2507 18.1981 83.0583 18.8789 82.831 19.5484C82.6882 20.0066 82.4236 20.4167 82.0661 20.7343C81.6308 21.0854 81.0806 21.2589 80.5244 21.2206C79.9821 21.2501 79.4473 21.0817 79.0181 20.7462C78.665 20.4732 78.3924 20.1082 78.2297 19.6907C78.1237 19.2163 77.9237 18.5521 77.653 17.6034Z" fill="#3B81FF" stroke="#3B81FF" stroke-width="0.75" stroke-miterlimit="10"/>
<path d="M92.0913 18.5498V2.51535C92.0388 1.83769 92.2404 1.16483 92.6562 0.62964C92.8403 0.425392 93.066 0.263539 93.3178 0.155072C93.5696 0.0466055 93.8417 -0.00592704 94.1154 0.00106944C94.3954 -0.00812325 94.6741 0.0420326 94.9336 0.148268C95.1931 0.254503 95.4275 0.414437 95.6218 0.617768C96.0436 1.15489 96.2494 1.8323 96.1984 2.51535V18.5973C96.2476 19.2765 96.0418 19.9495 95.6218 20.483C95.4314 20.6922 95.1979 20.8569 94.9377 20.9655C94.6775 21.074 94.3968 21.1239 94.1154 21.1116C93.8434 21.1184 93.5732 21.0658 93.3233 20.9573C93.0734 20.8488 92.8498 20.687 92.6679 20.483C92.2353 19.9378 92.0287 19.2451 92.0913 18.5498Z" fill="#3B81FF" stroke="#3B81FF" stroke-width="0.75" stroke-miterlimit="10"/>
<path d="M106.508 2.52685L114.393 14.5646V2.42012C114.342 1.78495 114.522 1.15289 114.899 0.641142C115.068 0.445601 115.278 0.290818 115.515 0.188183C115.751 0.085547 116.007 0.037679 116.264 0.0481505C116.525 0.036648 116.785 0.083931 117.025 0.186518C117.265 0.289104 117.48 0.444409 117.653 0.641142C118.034 1.15126 118.218 1.78347 118.17 2.42012V18.4783C118.17 20.2692 117.429 21.1587 115.958 21.1587C115.618 21.1652 115.28 21.113 114.958 21.0045C114.654 20.8869 114.375 20.714 114.134 20.4945C113.868 20.2469 113.627 19.9727 113.416 19.6762L112.745 18.7274L105.049 6.86756V18.8341C105.093 19.4686 104.905 20.0975 104.519 20.6013C104.343 20.7942 104.128 20.9469 103.889 21.0492C103.649 21.1514 103.391 21.2009 103.131 21.1943C102.869 21.2052 102.608 21.1564 102.368 21.0517C102.127 20.947 101.913 20.789 101.742 20.5894C101.357 20.0903 101.168 19.465 101.212 18.8341V3.04869C101.183 2.49766 101.259 1.94612 101.436 1.4239C101.614 1.00081 101.918 0.644254 102.307 0.403967C102.691 0.138335 103.147 -0.00241035 103.613 0.000700994C103.94 -0.00730289 104.264 0.0533102 104.566 0.178628C104.826 0.3007 105.061 0.469484 105.261 0.67672C105.488 0.919573 105.689 1.18593 105.861 1.47135L106.508 2.52685Z" fill="#3B81FF" stroke="#3B81FF" stroke-width="0.75" stroke-miterlimit="10"/>
</g>
<defs>
<clipPath id="clip0_289_1078">
<rect width="118.178" height="21.2278" fill="white"/>
</clipPath>
</defs>
</svg>
